<mxfile host="app.diagrams.net" modified="2024-04-02T05:46:10.598Z" agent="Mozilla/5.0 (Windows NT 10.0; Win64; x64; rv:124.0) Gecko/20100101 Firefox/124.0" etag="gwB9xbVZtN-9wSg6TiAU" version="24.2.1" type="device">
  <diagram name="Page-1" id="CPRd2XTYlgJJFrkscQmn">
    <mxGraphModel dx="983" dy="469" grid="1" gridSize="10" guides="1" tooltips="1" connect="1" arrows="1" fold="1" page="1" pageScale="1" pageWidth="850" pageHeight="1100" math="0" shadow="0">
      <root>
        <mxCell id="0" />
        <mxCell id="1" parent="0" />
        <mxCell id="a4xrkbco5qYCOOo-7Ga5-49" value="" style="rounded=0;whiteSpace=wrap;html=1;" vertex="1" parent="1">
          <mxGeometry x="110" y="150" width="620" height="420" as="geometry" />
        </mxCell>
        <mxCell id="a4xrkbco5qYCOOo-7Ga5-2" value="Choose name" style="ellipse;whiteSpace=wrap;html=1;" vertex="1" parent="1">
          <mxGeometry x="580" y="160" width="120" height="40" as="geometry" />
        </mxCell>
        <mxCell id="a4xrkbco5qYCOOo-7Ga5-5" value="Select number of rounds to play" style="ellipse;whiteSpace=wrap;html=1;" vertex="1" parent="1">
          <mxGeometry x="580" y="201" width="120" height="40" as="geometry" />
        </mxCell>
        <mxCell id="a4xrkbco5qYCOOo-7Ga5-6" value="Choose game difficulty" style="ellipse;whiteSpace=wrap;html=1;" vertex="1" parent="1">
          <mxGeometry x="580" y="246" width="120" height="40" as="geometry" />
        </mxCell>
        <mxCell id="a4xrkbco5qYCOOo-7Ga5-8" value="Start next round" style="ellipse;whiteSpace=wrap;html=1;" vertex="1" parent="1">
          <mxGeometry x="290" y="286" width="120" height="40" as="geometry" />
        </mxCell>
        <mxCell id="a4xrkbco5qYCOOo-7Ga5-9" value="Sell back towers/items to shop" style="ellipse;whiteSpace=wrap;html=1;" vertex="1" parent="1">
          <mxGeometry x="130" y="520" width="120" height="40" as="geometry" />
        </mxCell>
        <mxCell id="a4xrkbco5qYCOOo-7Ga5-10" value="Purchase towers/items from shop" style="ellipse;whiteSpace=wrap;html=1;" vertex="1" parent="1">
          <mxGeometry x="130" y="430" width="120" height="40" as="geometry" />
        </mxCell>
        <mxCell id="a4xrkbco5qYCOOo-7Ga5-11" value="View inventory" style="ellipse;whiteSpace=wrap;html=1;" vertex="1" parent="1">
          <mxGeometry x="300" y="375" width="120" height="40" as="geometry" />
        </mxCell>
        <mxCell id="a4xrkbco5qYCOOo-7Ga5-12" value="Place tower on map" style="ellipse;whiteSpace=wrap;html=1;" vertex="1" parent="1">
          <mxGeometry x="540" y="430" width="120" height="40" as="geometry" />
        </mxCell>
        <mxCell id="a4xrkbco5qYCOOo-7Ga5-13" value="Move tower to reserve group" style="ellipse;whiteSpace=wrap;html=1;" vertex="1" parent="1">
          <mxGeometry x="540" y="345" width="120" height="40" as="geometry" />
        </mxCell>
        <mxCell id="a4xrkbco5qYCOOo-7Ga5-14" value="Use item to upgrade tower" style="ellipse;whiteSpace=wrap;html=1;" vertex="1" parent="1">
          <mxGeometry x="540" y="390" width="120" height="40" as="geometry" />
        </mxCell>
        <mxCell id="a4xrkbco5qYCOOo-7Ga5-16" value="User" style="shape=umlActor;verticalLabelPosition=bottom;verticalAlign=top;html=1;outlineConnect=0;" vertex="1" parent="1">
          <mxGeometry x="50" y="190" width="30" height="60" as="geometry" />
        </mxCell>
        <mxCell id="a4xrkbco5qYCOOo-7Ga5-19" value="&lt;div&gt;Start Game&lt;/div&gt;&lt;div&gt;(initial setup)&lt;br&gt;&lt;/div&gt;" style="ellipse;whiteSpace=wrap;html=1;" vertex="1" parent="1">
          <mxGeometry x="290" y="180" width="120" height="50" as="geometry" />
        </mxCell>
        <mxCell id="a4xrkbco5qYCOOo-7Ga5-20" value="&lt;font style=&quot;font-size: 12px;&quot;&gt;&amp;lt;&amp;lt;include&amp;gt;&amp;gt;&lt;/font&gt;" style="html=1;labelBackgroundColor=#ffffff;startArrow=none;startFill=0;startSize=6;endArrow=classic;endFill=1;endSize=6;jettySize=auto;orthogonalLoop=1;strokeWidth=1;dashed=1;fontSize=14;rounded=0;" edge="1" parent="1" source="a4xrkbco5qYCOOo-7Ga5-19" target="a4xrkbco5qYCOOo-7Ga5-6">
          <mxGeometry x="-0.0029" width="60" height="60" relative="1" as="geometry">
            <mxPoint x="540" y="390" as="sourcePoint" />
            <mxPoint x="420" y="320" as="targetPoint" />
            <mxPoint as="offset" />
          </mxGeometry>
        </mxCell>
        <mxCell id="a4xrkbco5qYCOOo-7Ga5-25" value="&lt;font style=&quot;font-size: 12px;&quot;&gt;&amp;lt;&amp;lt;include&amp;gt;&amp;gt;&lt;/font&gt;" style="html=1;labelBackgroundColor=#ffffff;startArrow=none;startFill=0;startSize=6;endArrow=classic;endFill=1;endSize=6;jettySize=auto;orthogonalLoop=1;strokeWidth=1;dashed=1;fontSize=14;rounded=0;" edge="1" parent="1" source="a4xrkbco5qYCOOo-7Ga5-19" target="a4xrkbco5qYCOOo-7Ga5-2">
          <mxGeometry x="-0.0029" width="60" height="60" relative="1" as="geometry">
            <mxPoint x="420" y="260" as="sourcePoint" />
            <mxPoint x="560" y="260" as="targetPoint" />
            <mxPoint as="offset" />
          </mxGeometry>
        </mxCell>
        <mxCell id="a4xrkbco5qYCOOo-7Ga5-26" value="&lt;font style=&quot;font-size: 12px;&quot;&gt;&amp;lt;&amp;lt;include&amp;gt;&amp;gt;&lt;/font&gt;" style="html=1;labelBackgroundColor=#ffffff;startArrow=none;startFill=0;startSize=6;endArrow=classic;endFill=1;endSize=6;jettySize=auto;orthogonalLoop=1;strokeWidth=1;dashed=1;fontSize=14;rounded=0;" edge="1" parent="1" source="a4xrkbco5qYCOOo-7Ga5-19" target="a4xrkbco5qYCOOo-7Ga5-5">
          <mxGeometry x="-0.1774" y="3" width="60" height="60" relative="1" as="geometry">
            <mxPoint x="459.001076766585" y="255.75063634822425" as="sourcePoint" />
            <mxPoint x="520.61" y="292" as="targetPoint" />
            <mxPoint as="offset" />
          </mxGeometry>
        </mxCell>
        <mxCell id="a4xrkbco5qYCOOo-7Ga5-32" value="&lt;font style=&quot;font-size: 12px;&quot;&gt;&amp;lt;&amp;lt;extend&amp;gt;&amp;gt;&lt;/font&gt;" style="html=1;labelBackgroundColor=#ffffff;startArrow=none;startFill=0;startSize=6;endArrow=classic;endFill=1;endSize=6;jettySize=auto;orthogonalLoop=1;strokeWidth=1;dashed=1;fontSize=14;rounded=0;" edge="1" parent="1" source="a4xrkbco5qYCOOo-7Ga5-9" target="a4xrkbco5qYCOOo-7Ga5-10">
          <mxGeometry x="-0.0029" width="60" height="60" relative="1" as="geometry">
            <mxPoint x="640" y="370" as="sourcePoint" />
            <mxPoint x="390" y="375" as="targetPoint" />
            <mxPoint as="offset" />
          </mxGeometry>
        </mxCell>
        <mxCell id="a4xrkbco5qYCOOo-7Ga5-34" value="&lt;font style=&quot;font-size: 12px;&quot;&gt;&amp;lt;&amp;lt;depend&amp;gt;&amp;gt;&lt;br&gt;&lt;/font&gt;" style="html=1;labelBackgroundColor=#ffffff;startArrow=none;startFill=0;startSize=6;endArrow=classic;endFill=1;endSize=6;jettySize=auto;orthogonalLoop=1;strokeWidth=1;dashed=1;fontSize=14;rounded=0;" edge="1" parent="1" source="a4xrkbco5qYCOOo-7Ga5-12" target="a4xrkbco5qYCOOo-7Ga5-11">
          <mxGeometry x="-0.0029" width="60" height="60" relative="1" as="geometry">
            <mxPoint x="540" y="525" as="sourcePoint" />
            <mxPoint x="650" y="525" as="targetPoint" />
            <mxPoint as="offset" />
            <Array as="points" />
          </mxGeometry>
        </mxCell>
        <mxCell id="a4xrkbco5qYCOOo-7Ga5-35" value="&lt;font style=&quot;font-size: 12px;&quot;&gt;&amp;lt;&amp;lt;depend&amp;gt;&amp;gt;&lt;br&gt;&lt;/font&gt;" style="html=1;labelBackgroundColor=#ffffff;startArrow=none;startFill=0;startSize=6;endArrow=classic;endFill=1;endSize=6;jettySize=auto;orthogonalLoop=1;strokeWidth=1;dashed=1;fontSize=14;rounded=0;" edge="1" parent="1" source="a4xrkbco5qYCOOo-7Ga5-13" target="a4xrkbco5qYCOOo-7Ga5-11">
          <mxGeometry y="10" width="60" height="60" relative="1" as="geometry">
            <mxPoint x="515" y="505" as="sourcePoint" />
            <mxPoint x="515" y="440" as="targetPoint" />
            <mxPoint as="offset" />
            <Array as="points">
              <mxPoint x="470" y="370" />
            </Array>
          </mxGeometry>
        </mxCell>
        <mxCell id="a4xrkbco5qYCOOo-7Ga5-36" value="&lt;font style=&quot;font-size: 12px;&quot;&gt;&amp;lt;&amp;lt;depend&amp;gt;&amp;gt;&lt;br&gt;&lt;/font&gt;" style="html=1;labelBackgroundColor=#ffffff;startArrow=none;startFill=0;startSize=6;endArrow=classic;endFill=1;endSize=6;jettySize=auto;orthogonalLoop=1;strokeWidth=1;dashed=1;fontSize=14;rounded=0;" edge="1" parent="1" source="a4xrkbco5qYCOOo-7Ga5-14" target="a4xrkbco5qYCOOo-7Ga5-11">
          <mxGeometry x="-0.0004" width="60" height="60" relative="1" as="geometry">
            <mxPoint x="624" y="516" as="sourcePoint" />
            <mxPoint x="536" y="439" as="targetPoint" />
            <mxPoint as="offset" />
            <Array as="points" />
          </mxGeometry>
        </mxCell>
        <mxCell id="a4xrkbco5qYCOOo-7Ga5-39" value="View Shop" style="ellipse;whiteSpace=wrap;html=1;" vertex="1" parent="1">
          <mxGeometry x="130" y="340" width="120" height="40" as="geometry" />
        </mxCell>
        <mxCell id="a4xrkbco5qYCOOo-7Ga5-42" value="&lt;font style=&quot;font-size: 12px;&quot;&gt;&amp;lt;&amp;lt;depend&amp;gt;&amp;gt;&lt;br&gt;&lt;/font&gt;" style="html=1;labelBackgroundColor=#ffffff;startArrow=none;startFill=0;startSize=6;endArrow=classic;endFill=1;endSize=6;jettySize=auto;orthogonalLoop=1;strokeWidth=1;dashed=1;fontSize=14;rounded=0;" edge="1" parent="1" source="a4xrkbco5qYCOOo-7Ga5-10" target="a4xrkbco5qYCOOo-7Ga5-39">
          <mxGeometry x="-0.0029" width="60" height="60" relative="1" as="geometry">
            <mxPoint x="418" y="436" as="sourcePoint" />
            <mxPoint x="280" y="464" as="targetPoint" />
            <mxPoint as="offset" />
          </mxGeometry>
        </mxCell>
        <mxCell id="a4xrkbco5qYCOOo-7Ga5-43" style="edgeStyle=orthogonalEdgeStyle;rounded=0;orthogonalLoop=1;jettySize=auto;html=1;exitX=0.5;exitY=1;exitDx=0;exitDy=0;" edge="1" parent="1" source="a4xrkbco5qYCOOo-7Ga5-5" target="a4xrkbco5qYCOOo-7Ga5-5">
          <mxGeometry relative="1" as="geometry" />
        </mxCell>
        <mxCell id="a4xrkbco5qYCOOo-7Ga5-44" value="&lt;font style=&quot;font-size: 12px;&quot;&gt;&amp;lt;&amp;lt;extend&amp;gt;&amp;gt;&lt;/font&gt;" style="html=1;labelBackgroundColor=#ffffff;startArrow=none;startFill=0;startSize=6;endArrow=classic;endFill=1;endSize=6;jettySize=auto;orthogonalLoop=1;strokeWidth=1;dashed=1;fontSize=14;rounded=0;" edge="1" parent="1" source="a4xrkbco5qYCOOo-7Ga5-8" target="a4xrkbco5qYCOOo-7Ga5-19">
          <mxGeometry x="-0.0029" width="60" height="60" relative="1" as="geometry">
            <mxPoint x="360" y="390" as="sourcePoint" />
            <mxPoint x="260" y="390" as="targetPoint" />
            <mxPoint as="offset" />
          </mxGeometry>
        </mxCell>
        <mxCell id="a4xrkbco5qYCOOo-7Ga5-51" value="(PROJECT NAME)" style="text;html=1;align=center;verticalAlign=middle;whiteSpace=wrap;rounded=0;" vertex="1" parent="1">
          <mxGeometry x="110" y="150" width="110" height="30" as="geometry" />
        </mxCell>
        <mxCell id="a4xrkbco5qYCOOo-7Ga5-53" value="" style="endArrow=none;html=1;rounded=0;exitX=0.5;exitY=0.5;exitDx=0;exitDy=0;exitPerimeter=0;" edge="1" parent="1" source="a4xrkbco5qYCOOo-7Ga5-16" target="a4xrkbco5qYCOOo-7Ga5-19">
          <mxGeometry width="50" height="50" relative="1" as="geometry">
            <mxPoint x="40" y="270" as="sourcePoint" />
            <mxPoint x="90" y="220" as="targetPoint" />
          </mxGeometry>
        </mxCell>
        <mxCell id="a4xrkbco5qYCOOo-7Ga5-54" value="" style="endArrow=none;html=1;rounded=0;entryX=0;entryY=0;entryDx=0;entryDy=0;exitX=0.5;exitY=0.5;exitDx=0;exitDy=0;exitPerimeter=0;" edge="1" parent="1" source="a4xrkbco5qYCOOo-7Ga5-16" target="a4xrkbco5qYCOOo-7Ga5-39">
          <mxGeometry width="50" height="50" relative="1" as="geometry">
            <mxPoint x="65" y="230" as="sourcePoint" />
            <mxPoint x="50" y="350" as="targetPoint" />
          </mxGeometry>
        </mxCell>
        <mxCell id="a4xrkbco5qYCOOo-7Ga5-55" value="" style="endArrow=none;html=1;rounded=0;exitX=0.5;exitY=0.5;exitDx=0;exitDy=0;exitPerimeter=0;" edge="1" parent="1" source="a4xrkbco5qYCOOo-7Ga5-16" target="a4xrkbco5qYCOOo-7Ga5-11">
          <mxGeometry width="50" height="50" relative="1" as="geometry">
            <mxPoint x="65" y="230" as="sourcePoint" />
            <mxPoint x="178" y="416" as="targetPoint" />
          </mxGeometry>
        </mxCell>
      </root>
    </mxGraphModel>
  </diagram>
</mxfile>
